<svg viewBox="0 0 24 24" fill="none" xmlns="http://www.w3.org/2000/svg" xmlns:xlink="http://www.w3.org/1999/xlink" x="0" y="0"><defs><clipPath id="clip3_2_447">
<rect width="14" height="14" fill="white" transform="translate(5, 5)"/>
</clipPath></defs><g id="Instagram">
<circle id="Ellipse 9_2" cx="12" cy="12" r="12" fill="#FFB400"/>
<g id="Icons-instagram">
<g id="Icons-instagram_2">
<g id="Icons-instagram_3" clip-path="url(#clip3_2_447)">
<path id="Vector_3" d="M11.9998,6.167c1.585,0 1.7827,0.005 2.4045,0.035c0.6213,0.029 1.0442,0.126 1.4164,0.271c0.385,0.148 0.7093,0.349 1.0336,0.672c0.2967,0.292 0.5262,0.645 0.6726,1.034c0.1441,0.372 0.2421,0.795 0.2713,1.416c0.0274,0.622 0.035,0.82 0.035,2.405c0,1.585 -0.0059,1.783 -0.035,2.404c-0.0292,0.622 -0.1272,1.045 -0.2713,1.417c-0.146,0.389 -0.3756,0.742 -0.6726,1.033c-0.2917,0.297 -0.6444,0.526 -1.0336,0.673c-0.3716,0.144 -0.7951,0.242 -1.4164,0.271c-0.6218,0.028 -0.8195,0.035 -2.4045,0.035c-1.5849,0 -1.7826,-0.006 -2.4045,-0.035c-0.6212,-0.029 -1.0441,-0.127 -1.4163,-0.271c-0.3895,-0.146 -0.7423,-0.376 -1.0337,-0.673c-0.2966,-0.291 -0.5262,-0.644 -0.6725,-1.033c-0.1447,-0.372 -0.2421,-0.795 -0.2713,-1.417c-0.0274,-0.621 -0.035,-0.819 -0.035,-2.404c0,-1.585 0.0058,-1.783 0.035,-2.405c0.0292,-0.621 0.1266,-1.044 0.2713,-1.416c0.1459,-0.39 0.3755,-0.742 0.6725,-1.034c0.2915,-0.296 0.6443,-0.526 1.0337,-0.672c0.3722,-0.145 0.7945,-0.242 1.4163,-0.271c0.6219,-0.028 0.8196,-0.035 2.4045,-0.035zM11.9998,9.083c-0.7735,0 -1.5154,0.307 -2.0624,0.854c-0.5469,0.547 -0.8542,1.289 -0.8542,2.063c0,0.773 0.3073,1.515 0.8542,2.062c0.547,0.547 1.2889,0.855 2.0624,0.855c0.7736,0 1.5155,-0.308 2.0624,-0.855c0.547,-0.547 0.8543,-1.289 0.8543,-2.062c0,-0.774 -0.3073,-1.516 -0.8543,-2.063c-0.5469,-0.547 -1.2888,-0.854 -2.0624,-0.854zM15.7915,8.937c0,-0.193 -0.0768,-0.379 -0.2136,-0.515c-0.1367,-0.137 -0.3222,-0.214 -0.5156,-0.214c-0.1933,0 -0.3788,0.077 -0.5156,0.214c-0.1367,0.136 -0.2135,0.322 -0.2135,0.515c0,0.194 0.0768,0.379 0.2135,0.516c0.1368,0.137 0.3223,0.214 0.5156,0.214c0.1934,0 0.3789,-0.077 0.5156,-0.214c0.1368,-0.137 0.2136,-0.322 0.2136,-0.516zM11.9998,10.25c0.4642,0 0.9093,0.184 1.2375,0.512c0.3282,0.329 0.5125,0.774 0.5125,1.238c0,0.464 -0.1843,0.909 -0.5125,1.237c-0.3282,0.328 -0.7733,0.513 -1.2375,0.513c-0.4641,0 -0.9092,-0.185 -1.2374,-0.513c-0.3282,-0.328 -0.5126,-0.773 -0.5126,-1.237c0,-0.464 0.1844,-0.909 0.5126,-1.238c0.3282,-0.328 0.7733,-0.512 1.2374,-0.512z" fill="#2B2B2B"/>
</g>
</g>
</g>
</g></svg>