<svg viewBox="0 0 24 24" fill="none" xmlns="http://www.w3.org/2000/svg" xmlns:xlink="http://www.w3.org/1999/xlink" x="0" y="0"><defs><clipPath id="clip5_2_447">
<rect width="14" height="14" fill="white" transform="translate(5, 5)"/>
</clipPath></defs><g id="Linkeding">
<circle id="Ellipse 18" cx="12" cy="12" r="12" fill="#FFB400"/>
<g id="Icons-linkedin">
<g id="Icons-linkedin_2">
<g id="Icons-linkedin_3" clip-path="url(#clip5_2_447)">
<path id="Vector_5" d="M9.048,7.917c0,0.309 -0.123,0.606 -0.342,0.825c-0.219,0.218 -0.516,0.341 -0.825,0.341c-0.309,0 -0.606,-0.123 -0.825,-0.342c-0.219,-0.219 -0.341,-0.516 -0.341,-0.825c0,-0.31 0.123,-0.607 0.342,-0.825c0.219,-0.219 0.516,-0.342 0.825,-0.341c0.31,0 0.606,0.123 0.825,0.342c0.219,0.219 0.341,0.515 0.341,0.825zM9.083,9.947h-2.333v7.303h2.333zM12.77,9.947h-2.322v7.303h2.299v-3.832c0,-2.135 2.782,-2.334 2.782,0v3.832h2.304v-4.626c0,-3.599 -4.118,-3.465 -5.086,-1.697z" fill="#2B2B2B"/>
</g>
</g>
</g>
</g></svg>